<svg xmlns="http://www.w3.org/2000/svg" width="16" height="16" viewBox="0 0 16 16">
    <g fill="none" fill-rule="evenodd">
        <g>
            <g>
                <g>
                    <path d="M0 0H16V16H0z" transform="translate(-24.000000, -390.000000) translate(24.000000, 389.000000) translate(0.000000, 1.000000)"/>
                    <path stroke="#FFF" d="M8.124 13.25c3.59 0 6.5-2.66 6.5-5.94 0-3.28-2.91-5.94-6.5-5.94s-6.5 2.66-6.5 5.94c0 1.187.38 2.292 1.037 3.22l-.21 3.84 2.645-1.803c.904.436 1.934.682 3.028.682z" transform="translate(-24.000000, -390.000000) translate(24.000000, 389.000000) translate(0.000000, 1.000000) translate(8.123517, 7.870199) scale(-1, 1) translate(-8.123517, -7.870199)"/>
                    <path fill="#FFF" d="M7.605 9.646H8.605V10.646H7.605z" transform="translate(-24.000000, -390.000000) translate(24.000000, 389.000000) translate(0.000000, 1.000000)"/>
                    <path stroke="#FFF" d="M6.714 4.643c.57-.228.99-.35 1.259-.368.683-.043 1.177.267 1.395.493.217.226.404.74.329 1.245-.056.379-.3.79-.734 1.237l-.477.585c-.403.49-.378.977-.378 1.436" transform="translate(-24.000000, -390.000000) translate(24.000000, 389.000000) translate(0.000000, 1.000000)"/>
                </g>
            </g>
        </g>
    </g>
</svg>
