<svg width="28" height="28" viewBox="0 0 28 28" fill="none" xmlns="http://www.w3.org/2000/svg">
<path d="M12 8H10V20H12V8ZM18 8H16V20H18V8Z" fill="black"/>
<path d="M14 2C16.3734 2 18.6935 2.70379 20.6668 4.02236C22.6402 5.34094 24.1783 7.21509 25.0866 9.4078C25.9948 11.6005 26.2325 14.0133 25.7694 16.3411C25.3064 18.6689 24.1635 20.8071 22.4853 22.4853C20.8071 24.1635 18.6689 25.3064 16.3411 25.7694C14.0133 26.2324 11.6005 25.9948 9.40781 25.0866C7.21509 24.1783 5.34095 22.6402 4.02237 20.6668C2.70379 18.6935 2.00001 16.3734 2.00001 14C2.00001 10.8174 3.26429 7.76515 5.51472 5.51472C7.76516 3.26428 10.8174 2 14 2ZM14 0C11.2311 0 8.52431 0.821086 6.22202 2.35943C3.91973 3.89777 2.12532 6.08427 1.06569 8.64243C0.00606596 11.2006 -0.271181 14.0155 0.269012 16.7313C0.809205 19.447 2.14258 21.9416 4.10051 23.8995C6.05845 25.8574 8.55301 27.1908 11.2687 27.731C13.9845 28.2712 16.7994 27.9939 19.3576 26.9343C21.9157 25.8747 24.1022 24.0803 25.6406 21.778C27.1789 19.4757 28 16.7689 28 14C28 10.287 26.525 6.72601 23.8995 4.1005C21.274 1.475 17.713 0 14 0Z" fill="black"/>
</svg>
