<?xml version="1.0" encoding="UTF-8"?>
<svg width="12px" height="14px" viewBox="0 0 12 14" version="1.1" xmlns="http://www.w3.org/2000/svg" xmlns:xlink="http://www.w3.org/1999/xlink">
    <title>noun-return-1957733</title>
    <g id="Desktop_V7.0" stroke="none" stroke-width="1" fill="none" fill-rule="evenodd">
        <g id="noun-return-1957733" fill="#000000" fill-rule="nonzero">
            <path d="M5.07280555,6.99504217 C4.68527168,6.60461546 4.29630466,6.21418875 3.90879732,5.82230235 C3.2933929,5.20400509 2.6794747,4.58427467 2.06407027,3.96597741 C1.92183297,3.82228839 1.77959036,3.68006436 1.63736368,3.53635145 L1.63736368,4.15175587 C2.0263307,3.76568169 2.41529772,3.3796075 2.8028316,2.99353332 C3.41823602,2.38250795 4.03361391,1.77145605 4.64755865,1.16043069 C4.78834422,1.01964511 4.93057887,0.878870156 5.0713724,0.739536309 C5.23392856,0.57843188 5.24408799,0.282335512 5.0713724,0.124131881 C4.89720509,-0.0355208217 4.62868887,-0.0471319757 4.45596798,0.124131881 C4.06700095,0.510206066 3.67803393,0.896280252 3.29050006,1.28235444 C2.67509563,1.8933798 2.05971774,2.5044317 1.445773,3.11545707 C1.30498743,3.25624264 1.16275279,3.3970176 1.02195925,3.53635145 C0.855047919,3.70181105 0.856499645,3.98482065 1.02195925,4.15175587 C1.40949312,4.54218258 1.79846015,4.93260929 2.18596748,5.32449569 C2.80137191,5.94279295 3.41529011,6.56252336 4.03069453,7.18082063 C4.17293183,7.32450965 4.31517444,7.46673368 4.45740112,7.61044659 C4.61850555,7.77155102 4.91460192,7.78316218 5.07280555,7.61044659 C5.23245825,7.43773101 5.24406941,7.16776306 5.07280555,6.99504217 L5.07280555,6.99504217 Z" id="Path"></path>
            <path d="M1.33998544,4.28108422 C1.54898621,4.28108422 1.75798698,4.28108422 1.96844744,4.28253563 C2.46482095,4.28253563 2.95976132,4.28398704 3.45613483,4.28398704 C4.04250474,4.28543842 4.62887465,4.28543842 5.21521801,4.28688969 C5.68690953,4.28688969 6.15862759,4.2883411 6.6303191,4.2883411 C6.89302047,4.2883411 7.15861997,4.28108406 7.42133726,4.29850079 C7.52148247,4.30430637 7.62163033,4.31446607 7.72176757,4.32753001 C7.68257893,4.32172443 7.64484467,4.31737031 7.60565603,4.31156474 C7.98883738,4.36381626 8.36474683,4.46541319 8.7217865,4.61491443 C8.68695304,4.60040035 8.65211957,4.58588521 8.61728611,4.57137326 C8.82483516,4.65845559 9.02512292,4.7615069 9.21817328,4.87907548 C9.31106251,4.93567952 9.40104829,4.99663874 9.48959561,5.05904704 C9.509915,5.07356111 9.53168505,5.08952532 9.55200656,5.10403992 C9.56506918,5.11419962 9.57668033,5.12290812 9.58974347,5.13306914 C9.63038119,5.16354742 9.50701367,5.06920912 9.54765404,5.0996874 C9.59264693,5.13597259 9.63763982,5.17080605 9.68118098,5.20854296 C9.84954404,5.35078026 10.0062933,5.50462075 10.1514393,5.67009628 C10.1877245,5.710734 10.222558,5.75282609 10.2559397,5.7934638 C10.271905,5.81378319 10.2878697,5.83265244 10.3038361,5.8529713 C10.3154472,5.86748537 10.3444738,5.90522282 10.299482,5.84716572 C10.2486822,5.78185397 10.2951278,5.84136014 10.306739,5.85587395 C10.3735025,5.94585973 10.4373651,6.03729724 10.4968726,6.13164881 C10.6318513,6.34355303 10.7479628,6.5656273 10.8452073,6.79639069 L10.8016661,6.6918903 C10.9511594,7.04892997 11.0527563,7.42337973 11.1050158,7.80802077 C11.0992102,7.76883213 11.0948561,7.73109787 11.0890505,7.69190923 C11.1398503,8.08087625 11.1398503,8.47422234 11.0890505,8.86318936 C11.0948561,8.82400072 11.0992102,8.78626646 11.1050158,8.74707782 C11.0527643,9.13025917 10.9511673,9.50616862 10.8016661,9.86320828 L10.8452073,9.7587079 C10.7581249,9.96625694 10.6550736,10.1665447 10.537505,10.3595951 C10.480901,10.4524843 10.4199418,10.5424701 10.3575335,10.6310174 C10.3430194,10.6513368 10.3270552,10.6731068 10.3125406,10.6934283 C10.3023809,10.706491 10.2936724,10.7181021 10.2835114,10.7311653 C10.2530331,10.771803 10.3473714,10.6484355 10.3168931,10.6890758 C10.2806079,10.7340687 10.2457745,10.7790616 10.2080376,10.8226028 C10.0658003,10.9909658 9.91195976,11.1477151 9.74648423,11.2928611 C9.70584652,11.3291463 9.66375443,11.3639798 9.62311672,11.3973615 C9.60279733,11.4133268 9.58392808,11.4292915 9.56360922,11.4452579 C9.54909515,11.456869 9.5113577,11.4858956 9.5694148,11.4409037 C9.63472654,11.390104 9.57522038,11.4365496 9.5607063,11.4481608 C9.47072052,11.5149243 9.37928302,11.5787869 9.28493144,11.6382944 C9.07302722,11.7732731 8.85095295,11.8893846 8.62018956,11.986629 L8.72468995,11.9430879 C8.36765028,12.0925812 7.99320052,12.1941781 7.60855948,12.2464376 C7.64774812,12.240632 7.68548238,12.2362779 7.72467102,12.2304723 C7.37487672,12.2769169 7.02218958,12.2696609 6.67096212,12.2696609 L5.11217466,12.2696609 L3.10343176,12.2696609 L1.32255942,12.2696609 C1.03083415,12.2696609 0.739108888,12.2638554 0.44881677,12.2696609 L0.435754156,12.2696609 C0.207886255,12.2696609 -0.00982221732,12.469954 0.000342518569,12.7050726 C0.0105022119,12.9416508 0.191927885,13.1404842 0.435754156,13.1404842 L1.75218034,13.1404842 L4.47197704,13.1404842 L6.74630352,13.1404842 L7.13818991,13.1404842 C7.83485915,13.1390328 8.5126586,12.983735 9.14836596,12.70072 C10.3922058,12.1462775 11.3544852,11.0388786 11.7724867,9.74870028 C12.2021127,8.42356904 12.0148693,6.92433685 11.2819254,5.74145883 C10.5663864,4.58469597 9.36171926,3.73417562 8.01620547,3.49760002 C7.39936789,3.38874446 6.77090589,3.41487022 6.14679642,3.41487022 C5.25129115,3.41341884 4.35432619,3.4119673 3.45884746,3.4119673 C2.78829337,3.41051589 2.11919897,3.41051589 1.44867141,3.40906438 L1.3427193,3.40906438 C1.1148514,3.40906438 0.89714293,3.60935745 0.907307666,3.84447601 C0.916015898,4.082506 1.09598958,4.28134734 1.33982647,4.28134734 L1.33998544,4.28108422 Z" id="Path"></path>
        </g>
    </g>
</svg>