<svg xmlns="http://www.w3.org/2000/svg" width="16" height="16" viewBox="0 0 16 16">
    <g fill="none" fill-rule="evenodd">
        <g>
            <g>
                <g>
                    <g>
                        <g stroke="#FFFFFF">
                            <path stroke-linecap="round" d="M9.333 12h-8c-.552 0-1-.448-1-1V1c0-.552.448-1 1-1h8M2.822 3L6.822 3M2.822 6L5.822 6" transform="translate(-1038 -251) translate(1014 61) translate(0 28) translate(24 162) translate(1.667 2)"/>
                            <path d="M9.93 1.796c.552 0 1 .447 1 1v6h0l-1 1-1-1v-6c0-.553.447-1 1-1z" transform="translate(-1038 -251) translate(1014 61) translate(0 28) translate(24 162) translate(1.667 2) rotate(17 9.93 5.796)"/>
                            <path stroke-linecap="round" d="M2.822 9L4.822 9" transform="translate(-1038 -251) translate(1014 61) translate(0 28) translate(24 162) translate(1.667 2)"/>
                        </g>
                    </g>
                </g>
            </g>
        </g>
    </g>
</svg>
