<svg xmlns="http://www.w3.org/2000/svg" width="17" height="16" viewBox="0 0 17 16">
    <g fill="none" fill-rule="evenodd">
        <g stroke="#ffffff">
            <g>
                <g transform="translate(-872 -303) translate(873 303) translate(1.652 1.433)">
                    <path d="M5 6L8 6 8 10 6.503 9.143 5 10z"/>
                    <rect width="13" height="3" y="3" rx="1"/>
                    <path d="M1.634 6h10v6c0 .552-.448 1-1 1h-8c-.552 0-1-.448-1-1V6h0zM5.986 2.868s-.796-.145-1.175-.229C3.75 2.405 2.335 1.142 3.377.12c.855-.71 1.963.21 2.432 1.244.303.668.177 1.505.177 1.505z"/>
                    <path d="M9.986 2.868s-.796-.145-1.175-.229C7.75 2.405 6.335 1.142 7.377.12c.855-.71 1.963.21 2.432 1.244.303.668.177 1.505.177 1.505z" transform="matrix(-1 0 0 1 17.024 0)"/>
                </g>
            </g>
        </g>
    </g>
</svg>
